<svg width="32" height="32" viewBox="0 0 32 32" fill="none" xmlns="http://www.w3.org/2000/svg">
<g id="mdi:user" clip-path="url(#clip0_4012_20)">
<g id="Vector" filter="url(#filter0_d_4012_20)">
<path d="M16 5.33333C17.4145 5.33333 18.771 5.89524 19.7712 6.89543C20.7714 7.89562 21.3333 9.25218 21.3333 10.6667C21.3333 12.0812 20.7714 13.4377 19.7712 14.4379C18.771 15.4381 17.4145 16 16 16C14.5855 16 13.2289 15.4381 12.2287 14.4379C11.2285 13.4377 10.6666 12.0812 10.6666 10.6667C10.6666 9.25218 11.2285 7.89562 12.2287 6.89543C13.2289 5.89524 14.5855 5.33333 16 5.33333ZM16 18.6667C21.8933 18.6667 26.6666 21.0533 26.6666 24V26.6667H5.33331V24C5.33331 21.0533 10.1066 18.6667 16 18.6667Z" fill="white"/>
</g>
</g>
<defs>
<filter id="filter0_d_4012_20" x="1.33331" y="5.33333" width="29.3333" height="29.3333" filterUnits="userSpaceOnUse" color-interpolation-filters="sRGB">
<feFlood flood-opacity="0" result="BackgroundImageFix"/>
<feColorMatrix in="SourceAlpha" type="matrix" values="0 0 0 0 0 0 0 0 0 0 0 0 0 0 0 0 0 0 127 0" result="hardAlpha"/>
<feOffset dy="4"/>
<feGaussianBlur stdDeviation="2"/>
<feComposite in2="hardAlpha" operator="out"/>
<feColorMatrix type="matrix" values="0 0 0 0 0 0 0 0 0 0 0 0 0 0 0 0 0 0 0.25 0"/>
<feBlend mode="normal" in2="BackgroundImageFix" result="effect1_dropShadow_4012_20"/>
<feBlend mode="normal" in="SourceGraphic" in2="effect1_dropShadow_4012_20" result="shape"/>
</filter>
<clipPath id="clip0_4012_20">
<rect width="32" height="32" fill="white"/>
</clipPath>
</defs>
</svg>
