<svg width="32" height="32" viewBox="0 0 32 32" fill="none" xmlns="http://www.w3.org/2000/svg">
<g id="streamline:wifi-router-solid" clip-path="url(#clip0_4012_9)">
<g id="Vector" filter="url(#filter0_d_4012_9)">
<path fill-rule="evenodd" clip-rule="evenodd" d="M9.67545 6.29257C11.3549 4.61903 13.6291 3.67933 16 3.67933C18.3709 3.67933 20.6452 4.61903 22.3246 6.29257C22.6496 6.59538 23.0794 6.76023 23.5235 6.7524C23.9676 6.74456 24.3914 6.56465 24.7054 6.25056C25.0195 5.93647 25.1994 5.51274 25.2073 5.06862C25.2151 4.6245 25.0503 4.19468 24.7475 3.86971C22.4251 1.55341 19.2789 0.25264 15.9989 0.25264C12.7188 0.25264 9.57268 1.55341 7.25031 3.86971C7.08666 4.02793 6.95615 4.21715 6.8664 4.42634C6.77666 4.63553 6.72948 4.8605 6.72761 5.08813C6.72574 5.31575 6.76922 5.54146 6.85551 5.7521C6.94181 5.96274 7.06919 6.15408 7.23022 6.31496C7.39126 6.47584 7.58272 6.60304 7.79344 6.68914C8.00416 6.77524 8.22991 6.81851 8.45753 6.81642C8.68515 6.81434 8.91008 6.76694 9.11919 6.677C9.32829 6.58706 9.51739 6.45637 9.67545 6.29257ZM15.8857 14.3223C16.3404 14.3223 16.7764 14.1417 17.0979 13.8202C17.4194 13.4987 17.6 13.0627 17.6 12.608C17.6 12.1533 17.4194 11.7173 17.0979 11.3958C16.7764 11.0743 16.3404 10.8937 15.8857 10.8937C15.4311 10.8937 14.995 11.0743 14.6736 11.3958C14.3521 11.7173 14.1715 12.1533 14.1715 12.608C14.1715 13.0627 14.3521 13.4987 14.6736 13.8202C14.995 14.1417 15.4311 14.3223 15.8857 14.3223ZM18.16 9.64114C16.9555 8.43657 14.8229 8.43657 13.6183 9.64114C13.4614 9.80957 13.2721 9.94466 13.0618 10.0384C12.8515 10.132 12.6245 10.1824 12.3944 10.1865C12.1642 10.1906 11.9355 10.1482 11.7221 10.062C11.5086 9.97577 11.3147 9.84744 11.1519 9.68466C10.9892 9.52187 10.8608 9.32796 10.7746 9.11451C10.6884 8.90105 10.646 8.67241 10.6501 8.44223C10.6542 8.21205 10.7045 7.98505 10.7982 7.77477C10.8919 7.56448 11.027 7.37523 11.1955 7.21828C13.7395 4.672 18.0412 4.672 20.5852 7.21828C20.888 7.54325 21.0528 7.97307 21.045 8.41719C21.0372 8.86131 20.8572 9.28505 20.5432 9.59913C20.2291 9.91322 19.8053 10.0931 19.3612 10.101C18.9171 10.1088 18.485 9.94395 18.16 9.64114ZM4.5486 6.81371C4.49086 6.59484 4.39035 6.38956 4.25287 6.20973C4.11538 6.02991 3.94365 5.87909 3.74757 5.76599C3.55149 5.65288 3.33495 5.57973 3.11045 5.55075C2.88595 5.52178 2.65793 5.53755 2.43956 5.59716C2.22119 5.65677 2.01678 5.75904 1.83814 5.89806C1.65951 6.03709 1.51017 6.21012 1.39875 6.40716C1.28734 6.6042 1.21605 6.82136 1.189 7.0461C1.16195 7.27084 1.17968 7.49872 1.24117 7.71657L3.65488 16.5714H7.20688L4.5486 6.81371ZM30.7635 7.71657L28.3429 16.5714H24.7909L27.4515 6.81371C27.5743 6.3786 27.864 6.00962 28.2575 5.78709C28.6511 5.56456 29.1166 5.50651 29.5527 5.62557C29.9889 5.74463 30.3603 6.03116 30.5862 6.42278C30.8121 6.81441 30.8742 7.27941 30.7589 7.71657H30.7635ZM5.54745 30.2034V28.5714H3.4286C2.82239 28.5714 2.24101 28.3306 1.81235 27.902C1.3837 27.4733 1.14288 26.8919 1.14288 26.2857V21.7143C1.14288 21.1081 1.3837 20.5267 1.81235 20.098C2.24101 19.6694 2.82239 19.4286 3.4286 19.4286H28.5715C29.1777 19.4286 29.759 19.6694 30.1877 20.098C30.6164 20.5267 30.8572 21.1081 30.8572 21.7143V26.2857C30.8572 26.8919 30.6164 27.4733 30.1877 27.902C29.759 28.3306 29.1777 28.5714 28.5715 28.5714H26.4526V30.2034C26.4526 30.6581 26.272 31.0941 25.9505 31.4156C25.629 31.7371 25.193 31.9177 24.7383 31.9177C24.2837 31.9177 23.8476 31.7371 23.5261 31.4156C23.2046 31.0941 23.024 30.6581 23.024 30.2034V28.5714H8.97603V30.2034C8.97603 30.6581 8.79541 31.0941 8.47392 31.4156C8.15243 31.7371 7.7164 31.9177 7.26174 31.9177C6.80708 31.9177 6.37105 31.7371 6.04956 31.4156C5.72807 31.0941 5.54745 30.6581 5.54745 30.2034ZM6.11888 23.6503C6.11888 23.3472 6.23929 23.0565 6.45362 22.8422C6.66794 22.6278 6.95864 22.5074 7.26174 22.5074H8.35431C8.65742 22.5074 8.94811 22.6278 9.16243 22.8422C9.37676 23.0565 9.49717 23.3472 9.49717 23.6503C9.49717 23.9534 9.37676 24.2441 9.16243 24.4584C8.94811 24.6727 8.65742 24.7931 8.35431 24.7931H7.26174C6.95864 24.7931 6.66794 24.6727 6.45362 24.4584C6.23929 24.2441 6.11888 23.9534 6.11888 23.6503ZM12.7246 22.5074C12.4215 22.5074 12.1308 22.6278 11.9165 22.8422C11.7021 23.0565 11.5817 23.3472 11.5817 23.6503C11.5817 23.9534 11.7021 24.2441 11.9165 24.4584C12.1308 24.6727 12.4215 24.7931 12.7246 24.7931H13.8149C14.118 24.7931 14.4087 24.6727 14.623 24.4584C14.8373 24.2441 14.9577 23.9534 14.9577 23.6503C14.9577 23.3472 14.8373 23.0565 14.623 22.8422C14.4087 22.6278 14.118 22.5074 13.8149 22.5074H12.7246Z" fill="white"/>
</g>
</g>
<defs>
<filter id="filter0_d_4012_9" x="-2.85712" y="0.25264" width="37.7143" height="39.6651" filterUnits="userSpaceOnUse" color-interpolation-filters="sRGB">
<feFlood flood-opacity="0" result="BackgroundImageFix"/>
<feColorMatrix in="SourceAlpha" type="matrix" values="0 0 0 0 0 0 0 0 0 0 0 0 0 0 0 0 0 0 127 0" result="hardAlpha"/>
<feOffset dy="4"/>
<feGaussianBlur stdDeviation="2"/>
<feComposite in2="hardAlpha" operator="out"/>
<feColorMatrix type="matrix" values="0 0 0 0 0 0 0 0 0 0 0 0 0 0 0 0 0 0 0.25 0"/>
<feBlend mode="normal" in2="BackgroundImageFix" result="effect1_dropShadow_4012_9"/>
<feBlend mode="normal" in="SourceGraphic" in2="effect1_dropShadow_4012_9" result="shape"/>
</filter>
<clipPath id="clip0_4012_9">
<rect width="32" height="32" fill="white"/>
</clipPath>
</defs>
</svg>
