<svg width="32" height="32" viewBox="0 0 32 32" fill="none" xmlns="http://www.w3.org/2000/svg">
<g id="mdi:cart" clip-path="url(#clip0_1_375)">
<g id="Vector" filter="url(#filter0_d_1_375)">
<path d="M22.6667 24C21.1867 24 20 25.1867 20 26.6667C20 27.3739 20.281 28.0522 20.781 28.5523C21.2811 29.0524 21.9594 29.3333 22.6667 29.3333C23.3739 29.3333 24.0522 29.0524 24.5523 28.5523C25.0524 28.0522 25.3333 27.3739 25.3333 26.6667C25.3333 25.9594 25.0524 25.2811 24.5523 24.781C24.0522 24.2809 23.3739 24 22.6667 24ZM1.33333 2.66666V5.33332H4L8.8 15.4533L6.98666 18.72C6.78666 19.0933 6.66667 19.5333 6.66667 20C6.66667 20.7072 6.94762 21.3855 7.44771 21.8856C7.94781 22.3857 8.62609 22.6667 9.33333 22.6667H25.3333V20H9.89333C9.80493 20 9.72014 19.9649 9.65763 19.9024C9.59512 19.8398 9.56 19.7551 9.56 19.6667C9.56 19.6 9.57333 19.5467 9.6 19.5067L10.8 17.3333H20.7333C21.7333 17.3333 22.6133 16.7733 23.0667 15.96L27.84 7.33332C27.9333 7.11999 28 6.89332 28 6.66666C28 6.31303 27.8595 5.9739 27.6095 5.72385C27.3594 5.4738 27.0203 5.33332 26.6667 5.33332H6.94667L5.69333 2.66666M9.33333 24C7.85333 24 6.66667 25.1867 6.66667 26.6667C6.66667 27.3739 6.94762 28.0522 7.44771 28.5523C7.94781 29.0524 8.62609 29.3333 9.33333 29.3333C10.0406 29.3333 10.7189 29.0524 11.2189 28.5523C11.719 28.0522 12 27.3739 12 26.6667C12 25.9594 11.719 25.2811 11.2189 24.781C10.7189 24.2809 10.0406 24 9.33333 24Z" fill="url(#paint0_angular_1_375)"/>
</g>
</g>
<defs>
<filter id="filter0_d_1_375" x="-2.66667" y="2.66666" width="34.6667" height="34.6667" filterUnits="userSpaceOnUse" color-interpolation-filters="sRGB">
<feFlood flood-opacity="0" result="BackgroundImageFix"/>
<feColorMatrix in="SourceAlpha" type="matrix" values="0 0 0 0 0 0 0 0 0 0 0 0 0 0 0 0 0 0 127 0" result="hardAlpha"/>
<feOffset dy="4"/>
<feGaussianBlur stdDeviation="2"/>
<feComposite in2="hardAlpha" operator="out"/>
<feColorMatrix type="matrix" values="0 0 0 0 0 0 0 0 0 0 0 0 0 0 0 0 0 0 0.25 0"/>
<feBlend mode="normal" in2="BackgroundImageFix" result="effect1_dropShadow_1_375"/>
<feBlend mode="normal" in="SourceGraphic" in2="effect1_dropShadow_1_375" result="shape"/>
</filter>
<radialGradient id="paint0_angular_1_375" cx="0" cy="0" r="1" gradientUnits="userSpaceOnUse" gradientTransform="translate(21.4222 12.4444) rotate(93.6522) scale(10.4657 0.392472)">
<stop stop-color="#0057FF"/>
<stop offset="1" stop-color="#003DB3"/>
</radialGradient>
<clipPath id="clip0_1_375">
<rect width="32" height="32" fill="white"/>
</clipPath>
</defs>
</svg>
