<svg width="138" height="35" viewBox="0 0 138 35" fill="none" xmlns="http://www.w3.org/2000/svg">
<g id="Logo" clip-path="url(#clip0_4012_34)" filter="url(#filter0_d_4012_34)">
<path id="Vector" d="M90.4467 0H113.048V4.2147H104.074V26.317H99.5863V4.2147H90.4467V0ZM53.1624 0V4.2147H35.0152V10.9848H49.632V15.1663H35.0152V22.1355H53.1624V26.317H30.5609V0H53.2284H53.1624ZM64.4797 0H58.6066L79.6574 26.3502H85.5635L75.0051 13.1751L85.5635 0.0331866H79.6574L72.0685 9.52456L64.4797 0.0331866V0ZM70.5178 18.8168L67.5482 15.1663L58.6066 26.3502H64.4797L70.5178 18.8168Z" fill="white"/>
<path id="Vector_2" d="M30.7259 26.317L9.60914 0H4V26.317H8.48731V5.64173L25.0508 26.317H30.7259ZM114.071 26.1842C113.741 26.1842 113.477 26.0515 113.246 25.8524C113.015 25.6533 112.883 25.3214 112.883 24.9895C112.883 24.6577 112.982 24.3922 113.213 24.1599C113.444 23.9276 113.741 23.828 114.071 23.828C114.401 23.828 114.665 23.9276 114.896 24.1599C115.089 24.3372 115.215 24.5769 115.251 24.8375C115.287 25.098 115.231 25.3631 115.094 25.5869C114.991 25.7609 114.846 25.9064 114.674 26.0107C114.501 26.1149 114.305 26.1745 114.104 26.1842H114.071ZM121.726 15.0667H123.706V22.7992C123.706 23.4961 123.574 24.1267 123.277 24.6245C122.979 25.1253 122.544 25.5288 122.023 25.786C121.495 26.0515 120.868 26.2174 120.142 26.2174C119.482 26.2174 118.921 26.0847 118.393 25.8856C117.865 25.6864 117.47 25.2882 117.173 24.8236C116.876 24.3922 116.711 23.828 116.711 23.1643H118.69C118.723 23.4298 118.789 23.6952 118.921 23.8944C119.053 24.0935 119.251 24.2926 119.449 24.3922C119.68 24.5249 119.944 24.5581 120.241 24.5581C120.571 24.5581 120.835 24.4917 121.033 24.359C121.266 24.2191 121.45 24.0106 121.561 23.7616C121.66 23.4961 121.726 23.1643 121.726 22.766V15.0999V15.0667ZM131.921 18.0867C131.901 17.8657 131.831 17.6523 131.717 17.4625C131.603 17.2727 131.447 17.1117 131.261 16.9916C130.836 16.7287 130.341 16.6014 129.843 16.6265C129.414 16.6265 129.051 16.6929 128.754 16.7924C128.457 16.9252 128.226 17.1243 128.094 17.3234C127.944 17.5078 127.854 17.734 127.837 17.9715C127.819 18.2089 127.874 18.4461 127.995 18.6509C128.094 18.8168 128.226 18.9496 128.424 19.0491L129.018 19.381L129.678 19.5469L130.733 19.8124C131.162 19.912 131.558 20.0447 131.954 20.2107C132.333 20.3585 132.688 20.5597 133.01 20.808C133.328 21.0672 133.583 21.3966 133.755 21.7706C133.926 22.1446 134.01 22.5533 134 22.9651C134 23.6289 133.835 24.193 133.505 24.6577C133.142 25.1765 132.638 25.5796 132.053 25.8192C131.459 26.0847 130.701 26.2174 129.81 26.2174C128.952 26.2174 128.193 26.0847 127.566 25.8192C126.906 25.5537 126.444 25.1555 126.081 24.6577C125.714 24.1083 125.519 23.4611 125.52 22.7992H127.5C127.512 23.1426 127.629 23.4739 127.836 23.7474C128.043 24.0208 128.329 24.2229 128.655 24.3258C128.985 24.4585 129.381 24.5249 129.777 24.5249C130.206 24.5249 130.602 24.4585 130.931 24.3258C131.261 24.193 131.525 23.9939 131.723 23.7616C131.895 23.5318 131.987 23.2524 131.987 22.9651C131.987 22.6665 131.921 22.4342 131.756 22.235C131.544 22.0539 131.311 21.898 131.063 21.7704L130.008 21.4386L128.754 21.1067C127.83 20.8744 127.104 20.5425 126.576 20.0447C126.313 19.8084 126.105 19.516 125.968 19.1888C125.831 18.8616 125.768 18.5078 125.784 18.1531C125.779 17.5521 125.977 16.9671 126.345 16.4938C126.7 15.9798 127.192 15.5772 127.764 15.3322C128.424 15.0667 129.084 14.934 129.876 14.934C130.635 14.934 131.327 15.0667 131.921 15.3322C132.515 15.5977 132.977 15.996 133.34 16.4606C133.67 16.9252 133.835 17.4562 133.835 18.1199H131.921V18.0867Z" fill="white"/>
</g>
<defs>
<filter id="filter0_d_4012_34" x="0" y="0" width="138" height="34.5493" filterUnits="userSpaceOnUse" color-interpolation-filters="sRGB">
<feFlood flood-opacity="0" result="BackgroundImageFix"/>
<feColorMatrix in="SourceAlpha" type="matrix" values="0 0 0 0 0 0 0 0 0 0 0 0 0 0 0 0 0 0 127 0" result="hardAlpha"/>
<feOffset dy="4"/>
<feGaussianBlur stdDeviation="2"/>
<feComposite in2="hardAlpha" operator="out"/>
<feColorMatrix type="matrix" values="0 0 0 0 0 0 0 0 0 0 0 0 0 0 0 0 0 0 0.25 0"/>
<feBlend mode="normal" in2="BackgroundImageFix" result="effect1_dropShadow_4012_34"/>
<feBlend mode="normal" in="SourceGraphic" in2="effect1_dropShadow_4012_34" result="shape"/>
</filter>
<clipPath id="clip0_4012_34">
<rect width="130" height="26.5493" fill="white" transform="translate(4)"/>
</clipPath>
</defs>
</svg>
