<svg width="32" height="32" viewBox="0 0 32 32" fill="none" xmlns="http://www.w3.org/2000/svg">
<g id="mdi:proxy" clip-path="url(#clip0_4012_16)">
<g id="Vector" filter="url(#filter0_d_4012_16)">
<path d="M14.6667 6.66666H10.6667L16 1.33333L21.3334 6.66666H17.3334V12.5733C16.3334 13.1867 15.44 13.9467 14.6667 14.8267V6.66666ZM29.3334 14.6667L24 9.33333V13.3333C21.6841 13.2381 19.4208 14.0404 17.6819 15.5731C15.9431 17.1058 14.863 19.2504 14.6667 21.56C13.6669 21.915 12.8487 22.6518 12.3913 23.6091C11.9339 24.5663 11.8747 25.6658 12.2267 26.6667C12.5816 27.6664 13.3185 28.4847 14.2758 28.942C15.233 29.3994 16.3325 29.4586 17.3334 29.1067C18.3322 28.7505 19.1496 28.0135 19.6068 27.0567C20.0639 26.0998 20.1238 25.0009 19.7734 24C19.3734 22.8533 18.4667 21.96 17.3334 21.56C17.96 16.2267 23.2934 15.96 23.9334 15.96V19.96L29.3334 14.6667ZM14.1734 15.4533C12.4043 14.0878 10.2348 13.3428 8.00002 13.3333V9.33333L2.66669 14.6667L8.00002 20V16C9.78669 16.04 11.5067 16.6667 12.8534 17.8667C13.1867 17.0133 13.6267 16.2 14.1734 15.4533Z" fill="white"/>
</g>
</g>
<defs>
<filter id="filter0_d_4012_16" x="-1.33331" y="1.33333" width="34.6667" height="36.0003" filterUnits="userSpaceOnUse" color-interpolation-filters="sRGB">
<feFlood flood-opacity="0" result="BackgroundImageFix"/>
<feColorMatrix in="SourceAlpha" type="matrix" values="0 0 0 0 0 0 0 0 0 0 0 0 0 0 0 0 0 0 127 0" result="hardAlpha"/>
<feOffset dy="4"/>
<feGaussianBlur stdDeviation="2"/>
<feComposite in2="hardAlpha" operator="out"/>
<feColorMatrix type="matrix" values="0 0 0 0 0 0 0 0 0 0 0 0 0 0 0 0 0 0 0.25 0"/>
<feBlend mode="normal" in2="BackgroundImageFix" result="effect1_dropShadow_4012_16"/>
<feBlend mode="normal" in="SourceGraphic" in2="effect1_dropShadow_4012_16" result="shape"/>
</filter>
<clipPath id="clip0_4012_16">
<rect width="32" height="32" fill="white"/>
</clipPath>
</defs>
</svg>
