<svg width="32" height="32" viewBox="0 0 32 32" fill="none" xmlns="http://www.w3.org/2000/svg">
<g id="ic:round-home-repair-service" clip-path="url(#clip0_1_369)">
<g id="Vector" filter="url(#filter0_d_1_369)">
<path d="M22.6667 21.3333C21.9334 21.3333 21.3334 20.7333 21.3334 20H10.6667C10.6667 20.7333 10.0667 21.3333 9.33335 21.3333C8.60002 21.3333 8.00002 20.7333 8.00002 20H2.66669V24C2.66669 25.4667 3.86669 26.6667 5.33335 26.6667H26.6667C28.1334 26.6667 29.3334 25.4667 29.3334 24V20H24C24 20.7333 23.4 21.3333 22.6667 21.3333ZM26.6667 10.6667H22.6667V8.00001C22.6667 6.53334 21.4667 5.33334 20 5.33334H12C10.5334 5.33334 9.33335 6.53334 9.33335 8.00001V10.6667H5.33335C3.86669 10.6667 2.66669 11.8667 2.66669 13.3333V18.6667H8.00002V17.3333C8.00002 16.6 8.60002 16 9.33335 16C10.0667 16 10.6667 16.6 10.6667 17.3333V18.6667H21.3334V17.3333C21.3334 16.6 21.9334 16 22.6667 16C23.4 16 24 16.6 24 17.3333V18.6667H29.3334V13.3333C29.3334 11.8667 28.1334 10.6667 26.6667 10.6667ZM20 10.6667H12V8.00001H20V10.6667Z" fill="url(#paint0_angular_1_369)"/>
</g>
</g>
<defs>
<filter id="filter0_d_1_369" x="-1.33331" y="5.33334" width="34.6667" height="29.3333" filterUnits="userSpaceOnUse" color-interpolation-filters="sRGB">
<feFlood flood-opacity="0" result="BackgroundImageFix"/>
<feColorMatrix in="SourceAlpha" type="matrix" values="0 0 0 0 0 0 0 0 0 0 0 0 0 0 0 0 0 0 127 0" result="hardAlpha"/>
<feOffset dy="4"/>
<feGaussianBlur stdDeviation="2"/>
<feComposite in2="hardAlpha" operator="out"/>
<feColorMatrix type="matrix" values="0 0 0 0 0 0 0 0 0 0 0 0 0 0 0 0 0 0 0.25 0"/>
<feBlend mode="normal" in2="BackgroundImageFix" result="effect1_dropShadow_1_369"/>
<feBlend mode="normal" in="SourceGraphic" in2="effect1_dropShadow_1_369" result="shape"/>
</filter>
<radialGradient id="paint0_angular_1_369" cx="0" cy="0" r="1" gradientUnits="userSpaceOnUse" gradientTransform="translate(22.7556 13.1556) rotate(94.5618) scale(8.38211 0.392025)">
<stop stop-color="#0057FF"/>
<stop offset="1" stop-color="#003DB3"/>
</radialGradient>
<clipPath id="clip0_1_369">
<rect width="32" height="32" fill="white"/>
</clipPath>
</defs>
</svg>
