<svg width="33" height="32" viewBox="0 0 33 32" fill="none" xmlns="http://www.w3.org/2000/svg">
<g id="mdi:user">
<path id="Vector" d="M16.5 5.33334C17.9145 5.33334 19.271 5.89525 20.2712 6.89544C21.2714 7.89563 21.8333 9.25219 21.8333 10.6667C21.8333 12.0812 21.2714 13.4377 20.2712 14.4379C19.271 15.4381 17.9145 16 16.5 16C15.0855 16 13.7289 15.4381 12.7287 14.4379C11.7285 13.4377 11.1666 12.0812 11.1666 10.6667C11.1666 9.25219 11.7285 7.89563 12.7287 6.89544C13.7289 5.89525 15.0855 5.33334 16.5 5.33334ZM16.5 18.6667C22.3933 18.6667 27.1666 21.0533 27.1666 24V26.6667H5.83331V24C5.83331 21.0533 10.6066 18.6667 16.5 18.6667Z" fill="white"/>
</g>
</svg>
